<svg width="512" height="512" viewBox="0 0 512 512" fill="none" xmlns="http://www.w3.org/2000/svg">
<path d="M244.69 89.51L212.32 88.34C212.32 93.41 211.93 100.43 211.15 107.45C207.64 140.99 199.84 204.17 199.84 257.6C199.84 307.13 210.37 362.51 221.68 397.22L250.15 388.64C238.06 351.98 227.14 305.18 227.14 254.48C227.14 201.05 233.77 139.43 240.4 106.67C241.57 101.21 243.13 94.19 244.69 89.51ZM181.9 137.48C165.13 137.48 131.2 135.14 117.55 132.8L118.33 162.05C134.32 162.83 164.74 164.39 181.51 164.39C239.62 164.39 316.45 158.54 372.61 148.79L372.22 119.93C318.4 132.02 250.54 137.48 181.9 137.48ZM344.53 183.5L313.33 175.7C312.94 181.94 310.99 192.47 309.43 198.32C291.49 261.5 259.51 303.62 224.8 334.04C199.84 355.88 174.49 366.8 154.99 366.8C140.56 366.8 132.76 359 132.76 343.01C132.76 307.13 167.86 264.23 211.93 244.73C231.82 235.76 260.68 226.4 293.44 226.4C351.55 226.4 383.53 259.55 383.53 297.38C383.53 347.69 339.85 383.96 269.65 391.76L286.42 417.89C376.9 403.46 413.95 354.71 413.95 298.94C413.95 244.34 367.54 201.44 293.83 201.44C268.48 201.44 236.89 207.29 210.76 217.43C153.04 239.66 103.51 294.65 103.51 348.08C103.51 381.23 123.79 396.83 149.53 396.83C177.22 396.83 208.42 382.4 233.38 363.29C274.33 331.7 313.33 277.49 336.34 205.34C338.68 199.1 342.19 188.57 344.53 183.5Z" fill="white"/>
</svg>
